<svg width="136" height="136" viewBox="0 0 136 136" fill="none" xmlns="http://www.w3.org/2000/svg">
<g filter="url(#filter0_d_3_7196)">
<path fill-rule="evenodd" clip-rule="evenodd" d="M68.0001 1.51221C44.5071 1.51221 25.4551 20.5592 25.4551 44.0572C25.4551 62.8542 37.6451 78.8022 54.5501 84.4272C56.6761 84.8212 57.4571 83.5042 57.4571 82.3802C57.4571 81.3662 57.4171 78.0142 57.3991 74.4602C45.5621 77.0332 43.0651 69.4402 43.0651 69.4402C41.1301 64.5222 38.3411 63.2142 38.3411 63.2142C34.4811 60.5742 38.6311 60.6282 38.6311 60.6282C42.9041 60.9282 45.1541 65.0132 45.1541 65.0132C48.9481 71.5172 55.1071 69.6362 57.5341 68.5492C57.9171 65.7992 59.0191 63.9212 60.2361 62.8592C50.7861 61.7842 40.8521 58.1352 40.8521 41.8332C40.8521 37.1882 42.5141 33.3932 45.2361 30.4132C44.7941 29.3412 43.3381 25.0132 45.6481 19.1532C45.6481 19.1532 49.2201 18.0112 57.3481 23.5162C60.7431 22.5732 64.3831 22.1002 67.9981 22.0842C71.6141 22.1012 75.2561 22.5742 78.6561 23.5162C86.7761 18.0122 90.3441 19.1542 90.3441 19.1542C92.6601 25.0142 91.2041 29.3412 90.7621 30.4142C93.4901 33.3922 95.1401 37.1882 95.1401 41.8342C95.1401 58.1742 85.1871 61.7722 75.7131 62.8242C77.2391 64.1442 78.5991 66.7342 78.5991 70.7042C78.5991 76.3962 78.5511 80.9772 78.5511 82.3782C78.5511 83.5082 79.3171 84.8362 81.4731 84.4182C98.3691 78.7862 110.543 62.8442 110.543 44.0532C110.545 20.5602 91.4971 1.51221 68.0001 1.51221Z" fill="#181616"/>
<path d="M41.5702 62.5964C41.4752 62.8084 41.1422 62.8714 40.8402 62.7264C40.5302 62.5864 40.3582 62.2994 40.4582 62.0864C40.5482 61.8704 40.8822 61.8094 41.1912 61.9544C41.5012 62.0944 41.6772 62.3844 41.5712 62.5964H41.5702ZM43.2932 64.5204C43.0902 64.7074 42.6932 64.6204 42.4232 64.3224C42.1452 64.0254 42.0932 63.6284 42.2992 63.4384C42.5072 63.2504 42.8922 63.3384 43.1692 63.6354C43.4492 63.9354 43.5042 64.3284 43.2922 64.5194L43.2932 64.5204ZM44.9702 66.9684C44.7102 67.1504 44.2832 66.9804 44.0202 66.6014C43.7582 66.2244 43.7582 65.7714 44.0252 65.5884C44.2892 65.4064 44.7092 65.5704 44.9752 65.9454C45.2372 66.3304 45.2372 66.7854 44.9702 66.9694V66.9684ZM47.2682 69.3364C47.0352 69.5934 46.5382 69.5244 46.1752 69.1734C45.8032 68.8304 45.7002 68.3434 45.9332 68.0864C46.1702 67.8294 46.6692 67.9014 47.0352 68.2494C47.4052 68.5914 47.5172 69.0794 47.2682 69.3354V69.3364ZM50.4402 70.7104C50.3362 71.0444 49.8582 71.1954 49.3762 71.0544C48.8942 70.9084 48.5802 70.5184 48.6762 70.1824C48.7762 69.8464 49.2582 69.6894 49.7432 69.8404C50.2232 69.9844 50.5382 70.3704 50.4392 70.7104H50.4402ZM53.9202 70.9654C53.9332 71.3154 53.5242 71.6074 53.0182 71.6134C52.5102 71.6254 52.0982 71.3414 52.0922 70.9954C52.0922 70.6414 52.4922 70.3534 53.0002 70.3454C53.5062 70.3354 53.9202 70.6174 53.9202 70.9654ZM57.1602 70.4144C57.2202 70.7564 56.8702 71.1084 56.3672 71.2014C55.8732 71.2934 55.4172 71.0814 55.3532 70.7414C55.2932 70.3914 55.6502 70.0414 56.1432 69.9494C56.6462 69.8614 57.0962 70.0674 57.1602 70.4154V70.4144Z" fill="#181616"/>
<path d="M28.8551 108.302H18.1551C18.0225 108.302 17.8953 108.355 17.8016 108.448C17.7078 108.542 17.6551 108.669 17.6551 108.802V114.034C17.6551 114.167 17.7078 114.294 17.8016 114.388C17.8953 114.481 18.0225 114.534 18.1551 114.534H22.3281V121.034C22.3281 121.034 21.3911 121.354 18.7981 121.354C15.7421 121.354 11.4711 120.238 11.4711 110.846C11.4711 101.453 15.9191 100.216 20.0951 100.216C23.7091 100.216 25.2651 100.852 26.2571 101.159C26.5671 101.253 26.8571 100.943 26.8571 100.667L28.0501 95.612C28.0521 95.5363 28.0356 95.4613 28.0022 95.3934C27.9687 95.3254 27.9193 95.2666 27.8581 95.222C27.4551 94.934 25.0011 93.562 18.8001 93.562C11.6561 93.562 4.32812 96.6 4.32812 111.212C4.32812 125.822 12.7181 127.999 19.7881 127.999C25.6421 127.999 29.1931 125.497 29.1931 125.497C29.3391 125.417 29.3551 125.212 29.3551 125.117V108.801C29.3551 108.668 29.3024 108.541 29.2087 108.447C29.1149 108.354 28.9877 108.301 28.8551 108.301V108.302ZM83.5061 94.81H77.4801C77.4144 94.8103 77.3493 94.8235 77.2887 94.8489C77.2281 94.8744 77.1731 94.9115 77.1268 94.9582C77.0805 95.005 77.044 95.0603 77.0191 95.1212C76.9943 95.1821 76.9817 95.2473 76.9821 95.313L76.9841 106.957H67.5921V95.313C67.5925 95.2474 67.58 95.1823 67.5552 95.1214C67.5305 95.0606 67.494 95.0053 67.4478 94.9586C67.4017 94.9119 67.3468 94.8747 67.2862 94.8492C67.2257 94.8237 67.1608 94.8104 67.0951 94.81H61.0701C61.0044 94.8103 60.9393 94.8235 60.8787 94.8489C60.8181 94.8744 60.7631 94.9115 60.7168 94.9582C60.6705 95.005 60.634 95.0603 60.6091 95.1212C60.5843 95.1821 60.5717 95.2473 60.5721 95.313V126.843C60.5721 127.12 60.7961 127.346 61.0701 127.346H67.0951C67.1609 127.346 67.2259 127.332 67.2865 127.307C67.347 127.281 67.402 127.244 67.4482 127.197C67.4943 127.15 67.5308 127.095 67.5555 127.034C67.5802 126.973 67.5927 126.908 67.5921 126.842V113.356H76.9841L76.9681 126.842C76.9681 127.12 77.1921 127.346 77.4681 127.346H83.5061C83.5719 127.346 83.6369 127.332 83.6975 127.307C83.758 127.281 83.813 127.244 83.8592 127.197C83.9053 127.15 83.9418 127.095 83.9665 127.034C83.9912 126.973 84.0036 126.908 84.0031 126.842V95.312C84.0038 95.2463 83.9914 95.1812 83.9667 95.1203C83.9421 95.0594 83.9056 95.004 83.8593 94.9573C83.8131 94.9107 83.7581 94.8736 83.6975 94.8483C83.6368 94.823 83.5718 94.81 83.5061 94.81ZM36.3401 95.527C34.1961 95.527 32.4561 97.28 32.4561 99.45C32.4561 101.617 34.1961 103.375 36.3401 103.375C38.4861 103.375 40.2251 101.617 40.2251 99.45C40.2251 97.28 38.4851 95.527 36.3401 95.527ZM39.2961 105.135H33.2901C33.0141 105.135 32.7681 105.419 32.7681 105.695V126.547C32.7681 127.16 33.1501 127.342 33.6441 127.342H39.0541C39.6491 127.342 39.7941 127.05 39.7941 126.537V105.638C39.7944 105.572 39.7817 105.507 39.7568 105.447C39.7319 105.386 39.6953 105.33 39.6491 105.284C39.6028 105.237 39.5479 105.2 39.4873 105.175C39.4268 105.149 39.3618 105.136 39.2961 105.136V105.135ZM106.902 105.182H100.922C100.856 105.183 100.792 105.196 100.731 105.222C100.671 105.247 100.616 105.284 100.57 105.331C100.524 105.378 100.487 105.434 100.463 105.494C100.438 105.555 100.426 105.62 100.426 105.686V121.146C100.426 121.146 98.9061 122.256 96.7511 122.256C94.5961 122.256 94.0241 121.279 94.0241 119.168V105.686C94.0247 105.62 94.0122 105.555 93.9875 105.494C93.9628 105.433 93.9263 105.378 93.8802 105.331C93.834 105.284 93.779 105.247 93.7185 105.221C93.6579 105.196 93.5929 105.182 93.5271 105.182H87.4591C87.3263 105.183 87.1994 105.237 87.106 105.331C87.0127 105.426 86.9606 105.553 86.9611 105.686V120.188C86.9611 126.458 90.4561 127.992 95.2631 127.992C99.2071 127.992 102.387 125.812 102.387 125.812C102.387 125.812 102.537 126.962 102.607 127.097C102.677 127.233 102.854 127.37 103.047 127.37L106.907 127.353C106.973 127.353 107.038 127.34 107.099 127.314C107.16 127.289 107.215 127.251 107.262 127.205C107.308 127.158 107.345 127.102 107.37 127.041C107.395 126.98 107.407 126.915 107.407 126.849L107.404 105.683C107.404 105.55 107.351 105.423 107.257 105.329C107.164 105.235 107.037 105.182 106.904 105.181L106.902 105.182ZM123.244 104.474C119.848 104.474 117.538 105.989 117.538 105.989V95.312C117.539 95.2464 117.526 95.1813 117.501 95.1204C117.476 95.0596 117.44 95.0043 117.394 94.9576C117.348 94.9109 117.293 94.8737 117.232 94.8482C117.172 94.8227 117.107 94.8094 117.041 94.809H111C110.934 94.809 110.869 94.822 110.808 94.8474C110.747 94.8727 110.692 94.9098 110.646 94.9565C110.599 95.0033 110.562 95.0587 110.537 95.1198C110.512 95.1808 110.5 95.2461 110.5 95.312V126.842C110.5 126.908 110.512 126.973 110.537 127.034C110.562 127.095 110.599 127.151 110.646 127.198C110.692 127.244 110.747 127.281 110.808 127.307C110.869 127.332 110.934 127.345 111 127.345H115.192C115.382 127.345 115.524 127.248 115.629 127.077C115.732 126.907 115.883 125.623 115.883 125.623C115.883 125.623 118.353 127.963 123.031 127.963C128.521 127.963 131.671 125.179 131.671 115.461C131.671 105.743 126.641 104.473 123.243 104.473L123.244 104.474ZM120.884 122.238C118.811 122.175 117.404 121.234 117.404 121.234V111.249C117.404 111.249 118.792 110.399 120.494 110.245C122.647 110.052 124.722 110.703 124.722 115.839C124.722 121.256 123.787 122.325 120.885 122.237L120.884 122.238ZM57.1951 122.12C56.9321 122.12 56.2581 122.227 55.5651 122.227C53.3451 122.227 52.5921 121.195 52.5921 119.859V110.993H57.1121C57.1781 110.993 57.2435 110.98 57.3044 110.955C57.3653 110.929 57.4206 110.892 57.4671 110.845C57.5136 110.798 57.5503 110.743 57.5752 110.682C57.6001 110.62 57.6127 110.555 57.6121 110.489V105.633C57.6124 105.567 57.5997 105.502 57.5746 105.441C57.5496 105.38 57.5128 105.325 57.4664 105.278C57.4199 105.232 57.3647 105.195 57.3039 105.169C57.2431 105.144 57.178 105.131 57.1121 105.131H52.5921L52.5851 99.161C52.5851 98.934 52.4691 98.821 52.2071 98.821H46.0471C45.8091 98.821 45.6801 98.927 45.6801 99.156V105.326C45.6801 105.326 42.5931 106.071 42.3851 106.131C42.2813 106.161 42.19 106.224 42.1251 106.311C42.0602 106.398 42.0251 106.503 42.0251 106.611V110.488C42.0247 110.554 42.0373 110.619 42.062 110.68C42.0868 110.74 42.1233 110.796 42.1694 110.842C42.2156 110.889 42.2705 110.926 42.331 110.952C42.3915 110.977 42.4565 110.991 42.5221 110.991H45.6801V120.319C45.6801 127.249 50.5401 127.929 53.8201 127.929C55.3171 127.929 57.1101 127.449 57.4061 127.339C57.5861 127.272 57.6891 127.087 57.6891 126.886L57.6931 122.621C57.6911 122.489 57.6378 122.363 57.5445 122.269C57.4513 122.175 57.3253 122.122 57.1931 122.119L57.1951 122.12Z" fill="#100E0F"/>
</g>
<defs>
<filter id="filter0_d_3_7196" x="0" y="0" width="136" height="136" filterUnits="userSpaceOnUse" color-interpolation-filters="sRGB">
<feFlood flood-opacity="0" result="BackgroundImageFix"/>
<feColorMatrix in="SourceAlpha" type="matrix" values="0 0 0 0 0 0 0 0 0 0 0 0 0 0 0 0 0 0 127 0" result="hardAlpha"/>
<feOffset dy="4"/>
<feGaussianBlur stdDeviation="2"/>
<feComposite in2="hardAlpha" operator="out"/>
<feColorMatrix type="matrix" values="0 0 0 0 0 0 0 0 0 0 0 0 0 0 0 0 0 0 0.25 0"/>
<feBlend mode="normal" in2="BackgroundImageFix" result="effect1_dropShadow_3_7196"/>
<feBlend mode="normal" in="SourceGraphic" in2="effect1_dropShadow_3_7196" result="shape"/>
</filter>
</defs>
</svg>
