<svg xmlns="http://www.w3.org/2000/svg" width="2207" height="1061"  fill="none"><g clip-path="url(#clip0_1_9)"><path opacity="0.4" d="M1685.5 934C1909.45 934 2091 752.675 2091 529C2091 305.325 1909.45 124 1685.5 124C1461.55 124 1280 305.325 1280 529C1280 752.675 1461.55 934 1685.5 934Z" stroke="#6025FB" stroke-width="2"></path><path opacity="0.24" d="M1685.5 1050C1972.96 1050 2206 816.74 2206 529C2206 241.26 1972.96 8 1685.5 8C1398.04 8 1165 241.26 1165 529C1165 816.74 1398.04 1050 1685.5 1050Z" stroke="#6025FB" stroke-width="2"></path><path d="M1685.5 829C1851.46 829 1986 694.685 1986 529C1986 363.315 1851.46 229 1685.5 229C1519.54 229 1385 363.315 1385 529C1385 694.685 1519.54 829 1685.5 829Z" fill="#FF6E01"></path><path opacity="0.4" d="M531 948C761.855 948 949 761.079 949 530.5C949 299.921 761.855 113 531 113C300.145 113 113 299.921 113 530.5C113 761.079 300.145 948 531 948Z" stroke="#6025FB" stroke-width="2"></path><path opacity="0.24" d="M530.5 1060C822.935 1060 1060 822.935 1060 530.5C1060 238.065 822.935 1 530.5 1C238.065 1 1 238.065 1 530.5C1 822.935 238.065 1060 530.5 1060Z" stroke="#6025FB" stroke-width="2"></path><path d="M531 854C709.388 854 854 709.164 854 530.5C854 351.836 709.388 207 531 207C352.612 207 208 351.836 208 530.5C208 709.164 352.612 854 531 854Z" fill="#FF6E01"></path></g><defs><clipPath id="clip0_1_9"><rect width="2207" height="1061" fill="white"></rect></clipPath></defs></svg>